<svg xmlns="http://www.w3.org/2000/svg"><symbol viewBox="0 0 19 32" id="social-facebook"><title>social-facebook</title> <path class="path1" d="M17.125 0.214v4.714h-2.804q-1.536 0-2.071 0.643t-0.536 1.929v3.375h5.232l-0.696 5.286h-4.536v13.554h-5.464v-13.554h-4.554v-5.286h4.554v-3.893q0-3.321 1.857-5.152t4.946-1.83q2.625 0 4.071 0.214z"/> </symbol><symbol viewBox="0 0 27 32" id="social-instagram"><title>social-instagram</title> <path class="path1" d="M18.286 16q0-1.893-1.339-3.232t-3.232-1.339-3.232 1.339-1.339 3.232 1.339 3.232 3.232 1.339 3.232-1.339 1.339-3.232zM20.75 16q0 2.929-2.054 4.982t-4.982 2.054-4.982-2.054-2.054-4.982 2.054-4.982 4.982-2.054 4.982 2.054 2.054 4.982zM22.679 8.679q0 0.679-0.482 1.161t-1.161 0.482-1.161-0.482-0.482-1.161 0.482-1.161 1.161-0.482 1.161 0.482 0.482 1.161zM13.714 4.75q-0.125 0-1.366-0.009t-1.884 0-1.723 0.054-1.839 0.179-1.277 0.33q-0.893 0.357-1.571 1.036t-1.036 1.571q-0.196 0.518-0.33 1.277t-0.179 1.839-0.054 1.723 0 1.884 0.009 1.366-0.009 1.366 0 1.884 0.054 1.723 0.179 1.839 0.33 1.277q0.357 0.893 1.036 1.571t1.571 1.036q0.518 0.196 1.277 0.33t1.839 0.179 1.723 0.054 1.884 0 1.366-0.009 1.366 0.009 1.884 0 1.723-0.054 1.839-0.179 1.277-0.33q0.893-0.357 1.571-1.036t1.036-1.571q0.196-0.518 0.33-1.277t0.179-1.839 0.054-1.723 0-1.884-0.009-1.366 0.009-1.366 0-1.884-0.054-1.723-0.179-1.839-0.33-1.277q-0.357-0.893-1.036-1.571t-1.571-1.036q-0.518-0.196-1.277-0.33t-1.839-0.179-1.723-0.054-1.884 0-1.366 0.009zM27.429 16q0 4.089-0.089 5.661-0.179 3.714-2.214 5.75t-5.75 2.214q-1.571 0.089-5.661 0.089t-5.661-0.089q-3.714-0.179-5.75-2.214t-2.214-5.75q-0.089-1.571-0.089-5.661t0.089-5.661q0.179-3.714 2.214-5.75t5.75-2.214q1.571-0.089 5.661-0.089t5.661 0.089q3.714 0.179 5.75 2.214t2.214 5.75q0.089 1.571 0.089 5.661z"/> </symbol><symbol viewBox="0 0 27 32" id="social-linkedin"><title>social-linkedin</title> <path d="M6.232 11.161v17.696h-5.893v-17.696h5.893zM6.607 5.696q0.018 1.304-0.902 2.179t-2.42 0.875h-0.036q-1.464 0-2.357-0.875t-0.893-2.179q0-1.321 0.92-2.188t2.402-0.866 2.375 0.866 0.911 2.188zM27.429 18.714v10.143h-5.875v-9.464q0-1.875-0.723-2.938t-2.259-1.063q-1.125 0-1.884 0.616t-1.134 1.527q-0.196 0.536-0.196 1.446v9.875h-5.875q0.036-7.125 0.036-11.554t-0.018-5.286l-0.018-0.857h5.875v2.571h-0.036q0.357-0.571 0.732-1t1.009-0.929 1.554-0.777 2.045-0.277q3.054 0 4.911 2.027t1.857 5.938z"/> </symbol><symbol viewBox="0 0 30 32" id="social-twitter"><title>social-twitter</title> <path class="path1" d="M28.929 7.286q-1.196 1.75-2.893 2.982 0.018 0.25 0.018 0.75 0 2.321-0.679 4.634t-2.063 4.437-3.295 3.759-4.607 2.607-5.768 0.973q-4.839 0-8.857-2.589 0.625 0.071 1.393 0.071 4.018 0 7.161-2.464-1.875-0.036-3.357-1.152t-2.036-2.848q0.589 0.089 1.089 0.089 0.768 0 1.518-0.196-2-0.411-3.313-1.991t-1.313-3.67v-0.071q1.214 0.679 2.607 0.732-1.179-0.786-1.875-2.054t-0.696-2.75q0-1.571 0.786-2.911 2.161 2.661 5.259 4.259t6.634 1.777q-0.143-0.679-0.143-1.321 0-2.393 1.688-4.080t4.080-1.688q2.5 0 4.214 1.821 1.946-0.375 3.661-1.393-0.661 2.054-2.536 3.179 1.661-0.179 3.321-0.893z"/> </symbol><symbol viewBox="0 0 7.5 4.8" id="symbol-chevron-down"><title>symbol-chevron-down</title> <g> <polygon points="3.8,4.8 0,1.1 1.1,0 3.8,2.7 6.5,0 7.6,1.1 	"/> </g> </symbol><symbol viewBox="0 0 100 125" id="symbol-quote"><title>symbol-quote</title> <path d="M43.201,21.674L31.216,11.429C16.338,22.352,5,41.808,5,62.631c0,16.719,9.379,25.94,20.077,25.94   c9.712,0,17.478-8.187,17.478-18.45c0-9.895-6.786-17.391-15.858-17.391c-1.62,0-3.879,0.679-4.219,0.679   C23.784,42.491,32.836,28.843,43.201,21.674z"/> <path d="M78.502,52.73c-1.3,0-3.585,0.679-4.219,0.679C75.57,42.491,84.642,28.843,95,21.674L83.021,11.429   c-14.878,10.923-26.21,30.379-26.21,51.202c0,16.719,9.373,25.94,20.07,25.94c9.699,0,17.465-8.187,17.465-18.45   C94.347,60.227,87.573,52.73,78.502,52.73z"/> </symbol><symbol viewBox="0 0 265.9 265.9" id="symbol-search"><title>symbol-search</title> <path d="M260.3,223.5l-84.8-75.9c24.2-37,20-87.2-12.5-119.7C125.7-9.3,65.3-9.3,28,28C-9.3,65.3-9.3,125.7,28,163
	c32.5,32.5,82.7,36.7,119.7,12.5l75.9,84.8c6.5,7.2,17.7,7.4,25,0.2l12-12C267.8,241.3,267.5,230,260.3,223.5z M51.6,139.4
	c-24.2-24.2-24.2-63.5,0-87.8c24.2-24.2,63.5-24.2,87.8,0c24.2,24.2,24.2,63.5,0,87.8C115.1,163.6,75.9,163.6,51.6,139.4z"/> </symbol><symbol viewBox="0 0 21 32" id="symbol-thumbtack"><title>symbol-thumbtack</title> <path class="path1" d="M8.571 15.429v-8q0-0.25-0.161-0.411t-0.411-0.161-0.411 0.161-0.161 0.411v8q0 0.25 0.161 0.411t0.411 0.161 0.411-0.161 0.161-0.411zM20.571 21.714q0 0.464-0.339 0.804t-0.804 0.339h-7.661l-0.911 8.625q-0.036 0.214-0.188 0.366t-0.366 0.152h-0.018q-0.482 0-0.571-0.482l-1.357-8.661h-7.214q-0.464 0-0.804-0.339t-0.339-0.804q0-2.196 1.402-3.955t3.17-1.759v-9.143q-0.929 0-1.607-0.679t-0.679-1.607 0.679-1.607 1.607-0.679h11.429q0.929 0 1.607 0.679t0.679 1.607-0.679 1.607-1.607 0.679v9.143q1.768 0 3.17 1.759t1.402 3.955z"/> </symbol></svg>