<svg xmlns="http://www.w3.org/2000/svg"><symbol viewBox="0 0 35 35" id="social-facebook"><title>social-facebook</title> <path d="M17.5,3C25.5,3,32,9.5,32,17.5S25.5,32,17.5,32S3,25.5,3,17.5S9.5,3,17.5,3 M17.5,0C7.8,0,0,7.8,0,17.5
		C0,27.2,7.8,35,17.5,35S35,27.2,35,17.5C35,7.8,27.2,0,17.5,0L17.5,0z"/> <path d="M22.3,11.3h-1.7c-1.4,0-1.6,0.7-1.6,1.6V15h3.2l-0.4,3.3h-2.8v8.4h-3.4v-8.4h-2.8V15h2.8v-2.4
		c0-2.8,1.7-4.3,4.2-4.3c1.2,0,2.2,0.1,2.5,0.1V11.3z"/> </symbol><symbol viewBox="0 0 35 35" id="social-instagram"><title>social-instagram</title> <path d="M17.5,3C25.5,3,32,9.5,32,17.5c0,8-6.5,14.5-14.5,14.5C9.5,32,3,25.5,3,17.5C3,9.5,9.5,3,17.5,3 M17.5,0
		C7.8,0,0,7.8,0,17.5C0,27.2,7.8,35,17.5,35C27.2,35,35,27.2,35,17.5C35,7.8,27.2,0,17.5,0L17.5,0z"/> <path d="M26,23.8c0,1.2-1,2.2-2.2,2.2H11.2C10,26,9,25,9,23.8V11.2C9,10,10,9,11.2,9h12.7C25,9,26,10,26,11.2V23.8z
		 M24.1,16.2h-1.5c0.1,0.5,0.2,1,0.2,1.5c0,2.8-2.4,5.1-5.3,5.1c-2.9,0-5.3-2.3-5.3-5.1c0-0.5,0.1-1,0.2-1.5h-1.6v7.2
		c0,0.4,0.3,0.7,0.7,0.7h11.9c0.4,0,0.7-0.3,0.7-0.7V16.2z M17.5,14.2c-1.9,0-3.4,1.5-3.4,3.3c0,1.8,1.5,3.3,3.4,3.3
		c1.9,0,3.4-1.5,3.4-3.3C20.9,15.6,19.4,14.2,17.5,14.2z M24.1,11.6c0-0.4-0.3-0.8-0.8-0.8h-1.9c-0.4,0-0.8,0.3-0.8,0.8v1.8
		c0,0.4,0.3,0.8,0.8,0.8h1.9c0.4,0,0.8-0.3,0.8-0.8V11.6z"/> </symbol><symbol viewBox="0 0 35 35" id="social-twitter"><title>social-twitter</title> <path d="M17.5,3C25.5,3,32,9.5,32,17.5S25.5,32,17.5,32S3,25.5,3,17.5S9.5,3,17.5,3 M17.5,0C7.8,0,0,7.8,0,17.5
		C0,27.2,7.8,35,17.5,35S35,27.2,35,17.5C35,7.8,27.2,0,17.5,0L17.5,0z"/> <path d="M24.4,13.9c0,0.2,0,0.3,0,0.5c0,4.7-3.6,10.2-10.2,10.2c-2,0-3.9-0.6-5.5-1.6c0.3,0,0.6,0,0.9,0
		c1.7,0,3.2-0.6,4.4-1.5c-1.6,0-2.9-1.1-3.3-2.5c0.2,0,0.4,0.1,0.7,0.1c0.3,0,0.6,0,0.9-0.1c-1.6-0.3-2.9-1.8-2.9-3.5c0,0,0,0,0,0
		c0.5,0.3,1,0.4,1.6,0.5c-1-0.6-1.6-1.7-1.6-3c0-0.7,0.2-1.3,0.5-1.8c1.8,2.2,4.4,3.6,7.4,3.7c-0.1-0.3-0.1-0.5-0.1-0.8
		c0-2,1.6-3.6,3.6-3.6c1,0,2,0.4,2.6,1.1c0.8-0.2,1.6-0.5,2.3-0.9c-0.3,0.8-0.8,1.5-1.6,2c0.7-0.1,1.4-0.3,2.1-0.6
		C25.7,12.8,25.1,13.4,24.4,13.9z"/> </symbol><symbol viewBox="0 0 7.5 4.8" id="symbol-chevron-down"><title>symbol-chevron-down</title> <g> <polygon points="3.8,4.8 0,1.1 1.1,0 3.8,2.7 6.5,0 7.6,1.1 	"/> </g> </symbol><symbol viewBox="0 0 100 125" id="symbol-quote"><title>symbol-quote</title> <path d="M43.201,21.674L31.216,11.429C16.338,22.352,5,41.808,5,62.631c0,16.719,9.379,25.94,20.077,25.94   c9.712,0,17.478-8.187,17.478-18.45c0-9.895-6.786-17.391-15.858-17.391c-1.62,0-3.879,0.679-4.219,0.679   C23.784,42.491,32.836,28.843,43.201,21.674z"/> <path d="M78.502,52.73c-1.3,0-3.585,0.679-4.219,0.679C75.57,42.491,84.642,28.843,95,21.674L83.021,11.429   c-14.878,10.923-26.21,30.379-26.21,51.202c0,16.719,9.373,25.94,20.07,25.94c9.699,0,17.465-8.187,17.465-18.45   C94.347,60.227,87.573,52.73,78.502,52.73z"/> </symbol><symbol viewBox="0 0 265.9 265.9" id="symbol-search"><title>symbol-search</title> <path d="M260.3,223.5l-84.8-75.9c24.2-37,20-87.2-12.5-119.7C125.7-9.3,65.3-9.3,28,28C-9.3,65.3-9.3,125.7,28,163
	c32.5,32.5,82.7,36.7,119.7,12.5l75.9,84.8c6.5,7.2,17.7,7.4,25,0.2l12-12C267.8,241.3,267.5,230,260.3,223.5z M51.6,139.4
	c-24.2-24.2-24.2-63.5,0-87.8c24.2-24.2,63.5-24.2,87.8,0c24.2,24.2,24.2,63.5,0,87.8C115.1,163.6,75.9,163.6,51.6,139.4z"/> </symbol><symbol viewBox="0 0 21 32" id="symbol-thumbtack"><title>symbol-thumbtack</title> <path class="path1" d="M8.571 15.429v-8q0-0.25-0.161-0.411t-0.411-0.161-0.411 0.161-0.161 0.411v8q0 0.25 0.161 0.411t0.411 0.161 0.411-0.161 0.161-0.411zM20.571 21.714q0 0.464-0.339 0.804t-0.804 0.339h-7.661l-0.911 8.625q-0.036 0.214-0.188 0.366t-0.366 0.152h-0.018q-0.482 0-0.571-0.482l-1.357-8.661h-7.214q-0.464 0-0.804-0.339t-0.339-0.804q0-2.196 1.402-3.955t3.17-1.759v-9.143q-0.929 0-1.607-0.679t-0.679-1.607 0.679-1.607 1.607-0.679h11.429q0.929 0 1.607 0.679t0.679 1.607-0.679 1.607-1.607 0.679v9.143q1.768 0 3.17 1.759t1.402 3.955z"/> </symbol></svg>