<?xml version="1.0" encoding="utf-8"?>
<!-- Generator: Adobe Illustrator 18.1.1, SVG Export Plug-In . SVG Version: 6.00 Build 0)  -->
<svg version="1.1" id="Layer_1" xmlns="http://www.w3.org/2000/svg" xmlns:xlink="http://www.w3.org/1999/xlink" x="0px" y="0px"
	 viewBox="0 0 35 35" enable-background="new 0 0 35 35" xml:space="preserve">
<path fill="#C7F5F9" d="M17.5,3C25.5,3,32,9.5,32,17.5c0,8-6.5,14.5-14.5,14.5S3,25.5,3,17.5C3,9.5,9.5,3,17.5,3 M17.5,0
	C7.8,0,0,7.8,0,17.5C0,27.2,7.8,35,17.5,35S35,27.2,35,17.5C35,7.8,27.2,0,17.5,0L17.5,0z"/>
<path fill="#C7F5F9" d="M17.9,8.3c3.5,0,6.7,2.4,6.7,6.1c0,3.4-1.8,7.3-5.7,7.3c-0.9,0-2.1-0.5-2.6-1.3c-0.8,3.3-0.8,3.8-2.6,6.4
	l-0.2,0.1l-0.1-0.1c-0.1-0.7-0.2-1.4-0.2-2.1c0-2.3,1-5.5,1.6-7.7c-0.3-0.6-0.4-1.3-0.4-1.9c0-1.1,0.8-2.5,2-2.5
	c0.9,0,1.4,0.7,1.4,1.6c0,1.4-1,2.8-1,4.2c0,1,0.8,1.6,1.7,1.6c2.6,0,3.3-3.7,3.3-5.6c0-2.6-1.9-4.1-4.4-4.1c-2.9,0-5.2,2.1-5.2,5.1
	c0,1.4,0.9,2.2,0.9,2.5c0,0.3-0.2,1.3-0.6,1.3c-0.1,0-0.1,0-0.2,0c-1.6-0.5-2.2-2.6-2.2-4C10.4,10.8,14.2,8.3,17.9,8.3z"/>
</svg>
