<?xml version="1.0" encoding="utf-8"?>
<!-- Generator: Adobe Illustrator 18.1.1, SVG Export Plug-In . SVG Version: 6.00 Build 0)  -->
<svg version="1.1" id="Layer_1" xmlns="http://www.w3.org/2000/svg" xmlns:xlink="http://www.w3.org/1999/xlink" x="0px" y="0px"
	 viewBox="0 0 35 35" enable-background="new 0 0 35 35" xml:space="preserve">
<circle fill="#73E7EF" cx="17.5" cy="17.5" r="17.5"/>
<path fill="#FFFFFF" d="M26,23.8c0,1.2-1,2.2-2.2,2.2H11.2C10,26,9,25,9,23.8V11.2C9,10,10,9,11.2,9h12.7C25,9,26,10,26,11.2V23.8z
	 M24.1,16.2h-1.5c0.1,0.5,0.2,1,0.2,1.5c0,2.8-2.4,5.1-5.3,5.1c-2.9,0-5.3-2.3-5.3-5.1c0-0.5,0.1-1,0.2-1.5h-1.6v7.2
	c0,0.4,0.3,0.7,0.7,0.7h11.9c0.4,0,0.7-0.3,0.7-0.7V16.2z M17.5,14.2c-1.9,0-3.4,1.5-3.4,3.3c0,1.8,1.5,3.3,3.4,3.3
	c1.9,0,3.4-1.5,3.4-3.3C20.9,15.6,19.4,14.2,17.5,14.2z M24.1,11.6c0-0.4-0.3-0.8-0.8-0.8h-1.9c-0.4,0-0.8,0.3-0.8,0.8v1.8
	c0,0.4,0.3,0.8,0.8,0.8h1.9c0.4,0,0.8-0.3,0.8-0.8V11.6z"/>
</svg>
