<?xml version="1.0" encoding="utf-8"?>
<svg version="1.1" xmlns="http://www.w3.org/2000/svg" xmlns:xlink="http://www.w3.org/1999/xlink" x="0px" y="0px" viewBox="0 0 265.9 265.9" style="enable-background:new 0 0 265.9 265.9;" xml:space="preserve">
<path d="M260.3,223.5l-84.8-75.9c24.2-37,20-87.2-12.5-119.7C125.7-9.3,65.3-9.3,28,28C-9.3,65.3-9.3,125.7,28,163
	c32.5,32.5,82.7,36.7,119.7,12.5l75.9,84.8c6.5,7.2,17.7,7.4,25,0.2l12-12C267.8,241.3,267.5,230,260.3,223.5z M51.6,139.4
	c-24.2-24.2-24.2-63.5,0-87.8c24.2-24.2,63.5-24.2,87.8,0c24.2,24.2,24.2,63.5,0,87.8C115.1,163.6,75.9,163.6,51.6,139.4z"/>
</svg>
