<?xml version="1.0" encoding="utf-8"?>
<svg xmlns="http://www.w3.org/2000/svg" xmlns:xlink="http://www.w3.org/1999/xlink" version="1.1" x="0px" y="0px" viewBox="0 0 100 125" enable-background="new 0 0 100 100" xml:space="preserve">
	<path d="M43.201,21.674L31.216,11.429C16.338,22.352,5,41.808,5,62.631c0,16.719,9.379,25.94,20.077,25.94   c9.712,0,17.478-8.187,17.478-18.45c0-9.895-6.786-17.391-15.858-17.391c-1.62,0-3.879,0.679-4.219,0.679   C23.784,42.491,32.836,28.843,43.201,21.674z"/>
	<path d="M78.502,52.73c-1.3,0-3.585,0.679-4.219,0.679C75.57,42.491,84.642,28.843,95,21.674L83.021,11.429   c-14.878,10.923-26.21,30.379-26.21,51.202c0,16.719,9.373,25.94,20.07,25.94c9.699,0,17.465-8.187,17.465-18.45   C94.347,60.227,87.573,52.73,78.502,52.73z"/>
</svg>