<?xml version="1.0" encoding="utf-8"?>
<!-- Generator: Adobe Illustrator 18.1.1, SVG Export Plug-In . SVG Version: 6.00 Build 0)  -->
<svg version="1.1" id="Layer_1" xmlns="http://www.w3.org/2000/svg" xmlns:xlink="http://www.w3.org/1999/xlink" x="0px" y="0px"
	 viewBox="0 0 44.6 37.7" enable-background="new 0 0 44.6 37.7" xml:space="preserve">
<path d="M20.6,22.3v10.3c0,1.4-0.5,2.6-1.5,3.6s-2.2,1.5-3.6,1.5H5.1c-1.4,0-2.6-0.5-3.6-1.5c-1-1-1.5-2.2-1.5-3.6V13.7
	c0-1.9,0.4-3.6,1.1-5.3C1.8,6.7,2.8,5.3,4,4c1.2-1.2,2.7-2.2,4.4-2.9C10.1,0.4,11.9,0,13.7,0h1.7c0.5,0,0.9,0.2,1.2,0.5
	c0.3,0.3,0.5,0.7,0.5,1.2v3.4c0,0.5-0.2,0.9-0.5,1.2c-0.3,0.3-0.7,0.5-1.2,0.5h-1.7c-1.9,0-3.5,0.7-4.8,2c-1.3,1.3-2,3-2,4.8v0.9
	c0,0.7,0.2,1.3,0.8,1.8s1.1,0.8,1.8,0.8h6c1.4,0,2.6,0.5,3.6,1.5S20.6,20.9,20.6,22.3"/>
<path d="M44.6,22.3v10.3c0,1.4-0.5,2.6-1.5,3.6s-2.2,1.5-3.6,1.5H29.1c-1.4,0-2.6-0.5-3.6-1.5c-1-1-1.5-2.2-1.5-3.6V13.7
	c0-1.9,0.4-3.6,1.1-5.3C25.8,6.7,26.8,5.3,28,4c1.2-1.2,2.7-2.2,4.4-2.9C34.1,0.4,35.9,0,37.7,0h1.7c0.5,0,0.9,0.2,1.2,0.5
	c0.3,0.3,0.5,0.7,0.5,1.2v3.4c0,0.5-0.2,0.9-0.5,1.2c-0.3,0.3-0.7,0.5-1.2,0.5h-1.7c-1.9,0-3.5,0.7-4.8,2c-1.3,1.3-2,3-2,4.8v0.9
	c0,0.7,0.2,1.3,0.8,1.8s1.1,0.8,1.8,0.8h6c1.4,0,2.6,0.5,3.6,1.5S44.6,20.9,44.6,22.3"/>
<rect y="0" fill="none" width="44.6" height="37.7"/>
</svg>
